<svg width="283" height="103" viewBox="0 0 283 103" fill="none" xmlns="http://www.w3.org/2000/svg">
<path d="M57.5108 50.3007C57.5108 50.3007 62.0615 47.6099 60.9049 40.1423C60.9049 40.1423 57.1293 40.1565 55.383 38.7521C53.6368 37.3478 46.0042 42.3292 51.0754 49.2304C51.0754 49.2304 49.4352 42.551 43.2714 42.6487C43.2714 42.6487 41.0929 43.1376 39.932 42.6793C38.771 42.2211 35.6294 51.8399 43.1686 53.5059C43.1686 53.5059 39.0117 54.2285 37.3763 58.1692C37.3763 58.1692 37.1325 59.6534 34.9555 60.3134C34.9555 60.3134 45.4071 69.643 49.2582 60.2847C49.2582 60.2847 48.2957 64.9858 50.786 67.0473C50.786 67.0473 54.187 70.3565 53.9403 71.5224C53.9403 71.5224 63.1647 66.8241 55.5598 58.0022C55.5598 58.0022 58.6069 62.0162 63.0845 60.3289C67.562 58.6416 65.2198 53.2623 67.2508 52.4051C67.2508 52.4051 62.5399 47.7493 57.5108 50.3007Z" fill="#797D63"/>
<path d="M53.0459 55.9855C53.0459 55.9855 54.8234 57.4237 55.5442 56.3048C56.265 55.1859 54.4985 54.5689 54.4985 54.5689C54.4985 54.5689 56.4114 55.4207 56.6433 53.762C56.8752 52.1034 54.8301 52.9196 54.8301 52.9196C54.8301 52.9196 56.76 52.2653 55.5013 51.257C54.2426 50.2486 53.636 51.8388 53.636 51.8388C53.636 51.8388 53.9598 49.7241 52.4172 50.3133C50.8745 50.9024 50.8484 52.5352 51.7513 52.5543C51.7513 52.5543 49.9495 50.336 49.3883 52.0216C48.8271 53.7072 51.0798 53.8131 51.0798 53.8131C51.0798 53.8131 48.5841 53.0386 48.3069 54.2424C48.0296 55.4463 50.7008 56.274 51.0912 55.0554C51.0912 55.0554 49.2964 56.9714 50.6964 57.2939C52.0964 57.6165 53.3064 57.4377 53.0459 55.9855Z" fill="#EDC06F"/>
<g clip-path="url(#clip0_2_57)">
<path d="M219.869 75.2642C223.863 74.8982 224.174 69.9965 224.174 69.9965L224.538 73.6693C224.538 73.6693 218.872 82.6329 223.152 80.6675C227.433 78.7021 224.713 68.9592 224.713 68.9592C224.713 68.9592 227.985 78.037 228.931 75.0952C229.877 72.1534 224.611 67.3785 224.611 67.3785C224.413 64.3378 224.063 61.3752 223.593 58.5615C225.42 61.9114 229.788 69.2674 229.874 65.7533C229.971 61.9259 223.269 56.6397 223.269 56.6397C222.745 53.6609 222.124 50.8582 221.467 48.2845C224.297 52.0114 231.756 61.4617 231.427 57.1804C231.065 52.5316 224.005 47.5169 220.705 45.4123C220.513 44.7055 220.309 44.0059 220.1 43.31C218.698 38.6218 217.371 35.2165 216.796 33.7976C219.134 34.7346 221.417 35.8182 223.633 37.0426C224.396 44.003 229.216 51.8875 230.224 47.3212C230.897 44.3258 229.275 41.4267 227.764 39.4984C231.062 41.6204 234.228 43.9599 237.246 46.5028C237.737 50.1792 239.418 61.3686 242.048 58.2313C244.125 55.7432 241.737 51.4199 239.913 48.8192C242.761 51.3616 245.269 53.8681 247.372 56.1138C247.477 57.7007 248.295 68.5094 250.414 65.6068C251.749 63.7944 250.907 61.03 249.982 58.986C252.975 62.347 254.652 64.6427 254.652 64.6427C254.652 64.6427 257.152 77.2396 260.398 74.9092C263.644 72.5787 256.137 64.6944 256.137 64.6944C254.386 62.2798 252.622 60.0223 250.863 57.9016C255.345 60.8996 264.572 66.5257 263.626 61.8842C262.536 56.5643 251.873 55.9693 249.158 55.9046C246.348 52.6624 243.369 49.5876 240.235 46.6943C245.341 48.3715 261.943 53.447 259.095 47.6168C255.749 40.7575 238.038 44.7553 238.038 44.7553C234.486 41.66 230.732 38.8333 226.802 36.2962C231.449 37.3912 244.189 39.8767 242.966 33.9701C241.499 26.745 223.58 34.3167 223.58 34.3167C216.011 29.9321 210.983 28.6032 210.983 28.6032C209.904 30.496 212.247 32.163 212.247 32.163C212.932 32.3652 213.618 32.5834 214.296 32.8149C216.767 37.7 218.725 42.8544 220.135 48.1865C219.236 49.1829 210.58 58.9053 215.453 59.8181C220.574 60.7671 220.902 51.1796 220.906 51.1442C221.386 53.1089 221.811 55.0425 222.186 56.9159C220.947 59.5027 216.067 70.0516 220.106 68.1866C222.639 67.0176 223.116 64.3011 223.035 62.113L223.902 67.8604C223.902 67.8604 215.87 75.6338 219.869 75.2642Z" fill="#F58548"/>
</g>
<path d="M83.1822 14.6523C85.4174 15.6079 81.3515 21.6796 79.8842 23.7397C81.3783 22.5537 82.7848 21.2979 84.0967 19.9788C84.4315 17.9515 86.0911 8.65655 88.4234 9.87438C90.4312 10.9243 86.7758 16.5401 84.9652 19.0982C87.3 16.6528 89.4539 14.0984 91.4157 11.4483C91.4403 11.3963 94.0932 5.41186 95.8351 6.58788C97.5769 7.76391 91.8785 11.8421 91.8785 11.8421L91.8784 11.8286C91.2004 12.8604 90.1928 14.3608 88.9032 16.0572C90.9478 14.1447 94.826 10.9581 96.8624 12.082C99.5925 13.5885 90.6012 17.0042 87.8825 17.3531C86.8479 18.6401 85.6804 19.9957 84.3762 21.3212C86.7845 19.9114 92.254 16.9756 93.3054 18.7247C94.6281 20.9257 89.1097 22.1796 83.6702 22.0271C81.3974 24.2588 78.7977 26.3451 75.9808 27.8104L75.3439 26.6467C75.3439 26.6467 76.8386 26.0617 79.4227 24.0948C79.6316 22.2914 80.7598 13.6175 83.1822 14.6523Z" fill="#585123"/>
<path d="M185.248 24.2984C185.248 24.2984 201.171 30.1485 198.206 33.0712C195.24 35.9938 183.331 25.9588 183.331 25.9588C183.331 25.9588 191.175 36.2817 187.385 38.0866C183.595 39.8916 182.419 26.8584 182.419 26.8584C182.419 26.8584 186.236 42.3562 181.38 40.9633C176.524 39.5704 180.619 25.9837 180.619 25.9837C180.619 25.9837 175.028 38.7669 171.652 37.229C168.275 35.6911 178.654 24.5972 178.654 24.5972C178.654 24.5972 168.345 34.3475 165.461 30.5174C162.578 26.6874 178.635 22.4863 178.635 22.4863C178.635 22.4863 164.371 26.7243 163.312 22.627C162.254 18.5297 177.973 21.6423 177.973 21.6423C177.973 21.6423 162.119 16.6007 164.725 13.1063C167.33 9.61192 179.107 20.4654 179.107 20.4654C179.107 20.4654 165.766 10.2547 168.144 7.45647C170.523 4.65828 180.035 19.7053 180.035 19.7053C180.035 19.7053 170.75 3.958 174.755 3.03821C178.76 2.11843 181.838 19.9557 181.838 19.9557C181.838 19.9557 179.261 0.34369 184.349 2.38334C189.437 4.423 183.058 20.4292 183.058 20.4292C183.058 20.4292 190.697 4.53464 193.942 6.65693C197.188 8.77921 183.933 21.9654 183.933 21.9654C183.933 21.9654 195.484 10.3596 198.619 12.7294C201.754 15.0991 184.681 22.3528 184.681 22.3528C184.681 22.3528 199.839 18.2626 200.525 22.618C201.212 26.9734 185.248 24.2984 185.248 24.2984Z" fill="#EDC06F"/>
<path d="M182.309 21.664C182.309 21.664 184.09 16.9657 181.872 16.4193C179.653 15.8729 181.358 22.0547 181.399 21.8079C181.439 21.5611 180.316 17.1687 177.576 17.9619C174.837 18.7551 180.837 22.195 180.837 22.195C180.837 22.195 178.135 20.1951 176.157 21.6589C174.179 23.1228 180.61 22.8789 180.61 22.8789C180.61 22.8789 176.89 22.6132 176.652 25.0345C176.413 27.4557 180.761 23.2225 180.761 23.2225C180.761 23.2225 177.545 27.2317 179.639 28.268C181.733 29.3043 181.496 23.4704 181.496 23.4704C181.496 23.4704 181.22 27.8182 183.341 27.4989C185.461 27.1796 182.065 23.4652 182.065 23.4652C182.065 23.4652 185.529 26.4643 185.86 24.3873C186.192 22.3102 182.73 22.9498 182.73 22.9498C182.73 22.9498 187.733 21.6389 186.338 19.5201C184.943 17.4014 182.309 21.664 182.309 21.664Z" fill="#F58548"/>
<g clip-path="url(#clip1_2_57)">
<path d="M134.195 25.3572C134.195 25.3572 144.159 30.0724 145.384 40.3953C146.61 50.7182 144.497 57.3781 144.497 57.3781C144.497 57.3781 134.714 42.9632 134.346 30.0075C134.346 30.0075 134.904 48.3105 121.855 67.1859C121.855 67.1859 123.309 54.7933 122.978 50.9622C122.647 47.1311 123.861 35.7941 128.606 30.0231C128.606 30.0231 124.278 34.74 121.785 40.3019C119.292 45.8639 113.401 51.6827 107.424 49.9231C107.424 49.9231 110.493 49.708 113.495 41.6815C116.497 33.655 124.262 21.4916 134.195 25.3572Z" fill="#FFCB6A"/>
</g>
<path d="M21.7663 25.1221C21.7951 24.8617 23.8533 21.8583 21.9688 18.8802C20.0842 15.9022 16.4556 9.12876 17.2961 7.03467C17.2961 7.03467 15.1922 13.2666 19.2215 20.9645C19.2215 20.9645 18.7438 18.7237 14.9217 15.4923C11.0997 12.2609 11.487 8.90058 11.487 8.90058C11.487 8.90058 10.8034 19.3113 16.6716 22.4691C16.6716 22.4691 8.78874 18.2921 8.74615 13.6543C8.74615 13.6543 8.39608 23.9032 18.6259 25.9668L21.7663 25.1221Z" fill="#F2A659"/>
<path d="M21.5119 25.7048C21.5119 25.7048 27.8041 32.0321 22.807 32.9405C17.8099 33.8488 1.79971 20.9355 1.79971 20.9355C1.79971 20.9355 1.21808 18.6957 3.02553 18.3669C3.02553 18.3669 12.9526 27.9136 21.3617 30.8482C22.5171 31.3524 23.5075 31.4364 22.4588 29.8114C21.41 28.1864 20.2186 26.3026 20.2186 26.3026C20.2186 26.3026 18.7544 26.3845 18.3952 25.7389C18.036 25.0933 19.4247 24.7055 19.7456 25.1433C19.7456 25.1433 19.9217 24.2327 20.6837 24.6145C20.9437 24.6395 22.0005 22.9021 22.0404 24.4213L21.5119 25.7048Z" fill="#797D63"/>
<defs>
<clipPath id="clip0_2_57">
<rect width="68.4156" height="70.2402" fill="white" transform="matrix(-0.849433 0.527696 -0.488418 -0.87261 282.582 64.1678)"/>
</clipPath>
<clipPath id="clip1_2_57">
<rect width="43.1957" height="44.4769" fill="white" transform="matrix(-0.875604 -0.48303 0.444224 -0.895916 137.334 76.6231)"/>
</clipPath>
</defs>
</svg>
